<svg width="42" height="42" viewBox="0 0 42 42" fill="none" xmlns="http://www.w3.org/2000/svg">
<path fill-rule="evenodd" clip-rule="evenodd" d="M6.5625 7.875C6.5625 7.15013 7.15013 6.5625 7.875 6.5625H34.125C34.8499 6.5625 35.4375 7.15013 35.4375 7.875V14C35.4375 14.7249 36.0251 15.3125 36.75 15.3125C37.4749 15.3125 38.0625 14.7249 38.0625 14V7.875C38.0625 5.70038 36.2996 3.9375 34.125 3.9375H7.875C5.70038 3.9375 3.9375 5.70038 3.9375 7.875V16.625C3.9375 17.6335 4.31662 18.5534 4.94011 19.25C4.31662 19.9466 3.9375 20.8665 3.9375 21.875V30.625C3.9375 32.7996 5.70038 34.5625 7.875 34.5625H15.75C16.4749 34.5625 17.0625 33.9749 17.0625 33.25C17.0625 32.5251 16.4749 31.9375 15.75 31.9375H7.875C7.15013 31.9375 6.5625 31.3499 6.5625 30.625V21.875C6.5625 21.1501 7.15013 20.5625 7.875 20.5625H15.75C16.4749 20.5625 17.0625 19.9749 17.0625 19.25C17.0625 18.5251 16.4749 17.9375 15.75 17.9375H7.875C7.15013 17.9375 6.5625 17.3499 6.5625 16.625V7.875ZM12.6875 11.3969C12.6875 10.672 12.0999 10.0844 11.375 10.0844C10.6501 10.0844 10.0625 10.672 10.0625 11.3969V13.1469C10.0625 13.8718 10.6501 14.4594 11.375 14.4594C12.0999 14.4594 12.6875 13.8718 12.6875 13.1469V11.3969ZM21.4375 12.2719C21.4375 11.547 22.0251 10.9594 22.75 10.9594H31.5219C32.2467 10.9594 32.8344 11.547 32.8344 12.2719C32.8344 12.9968 32.2467 13.5844 31.5219 13.5844H22.75C22.0251 13.5844 21.4375 12.9968 21.4375 12.2719ZM11.3528 24.0407C12.0777 24.0407 12.6653 24.6283 12.6653 25.3532V27.1032C12.6653 27.8281 12.0777 28.4157 11.3528 28.4157C10.6279 28.4157 10.0403 27.8281 10.0403 27.1032V25.3532C10.0403 24.6283 10.6279 24.0407 11.3528 24.0407ZM16.625 10.0844C17.3499 10.0844 17.9375 10.672 17.9375 11.3969V13.1469C17.9375 13.8718 17.3499 14.4594 16.625 14.4594C15.9001 14.4594 15.3125 13.8718 15.3125 13.1469V11.3969C15.3125 10.672 15.9001 10.0844 16.625 10.0844ZM29.3656 26.6344L27.1781 24.4469C26.6655 23.9344 25.8345 23.9344 25.3219 24.4469C24.8094 24.9595 24.8094 25.7905 25.3219 26.3031L26.5813 27.5625L25.3219 28.8219C24.8094 29.3345 24.8094 30.1655 25.3219 30.6781C25.8345 31.1906 26.6655 31.1906 27.1781 30.6781L29.3656 28.4906C29.8781 27.978 29.8781 27.147 29.3656 26.6344ZM30.1875 30.625C30.1875 29.9001 30.7751 29.3125 31.5 29.3125H33.25C33.9749 29.3125 34.5625 29.9001 34.5625 30.625C34.5625 31.3499 33.9749 31.9375 33.25 31.9375H31.5C30.7751 31.9375 30.1875 31.3499 30.1875 30.625ZM26.25 17.9375C22.6256 17.9375 19.6875 20.8756 19.6875 24.5V31.5C19.6875 35.1244 22.6256 38.0625 26.25 38.0625H33.25C36.8744 38.0625 39.8125 35.1244 39.8125 31.5V24.5C39.8125 20.8756 36.8744 17.9375 33.25 17.9375H26.25ZM22.3125 24.5C22.3125 22.3254 24.0754 20.5625 26.25 20.5625H33.25C35.4246 20.5625 37.1875 22.3254 37.1875 24.5V31.5C37.1875 33.6746 35.4246 35.4375 33.25 35.4375H26.25C24.0754 35.4375 22.3125 33.6746 22.3125 31.5V24.5Z" fill="#58595B"/>
</svg>
