<svg width="42" height="42" viewBox="0 0 42 42" fill="none" xmlns="http://www.w3.org/2000/svg">
<path fill-rule="evenodd" clip-rule="evenodd" d="M18.8125 5.25C18.8125 5.00887 19.0089 4.8125 19.25 4.8125H22.75C22.9911 4.8125 23.1875 5.00887 23.1875 5.25V8.75C23.1875 8.99113 22.9911 9.1875 22.75 9.1875H19.25C19.0089 9.1875 18.8125 8.99113 18.8125 8.75V5.25ZM19.25 2.1875C17.5591 2.1875 16.1875 3.55913 16.1875 5.25V5.6875H10.5C7.84138 5.6875 5.6875 7.84138 5.6875 10.5V16.1875H5.25C3.55913 16.1875 2.1875 17.5591 2.1875 19.25V22.75C2.1875 24.4409 3.55913 25.8125 5.25 25.8125H5.6875V31.5C5.6875 34.1586 7.84138 36.3125 10.5 36.3125H16.1875V36.75C16.1875 38.4409 17.5591 39.8125 19.25 39.8125H22.75C24.4409 39.8125 25.8125 38.4409 25.8125 36.75V36.3125H31.5C34.1586 36.3125 36.3125 34.1586 36.3125 31.5V25.8125H36.75C38.4409 25.8125 39.8125 24.4409 39.8125 22.75V19.25C39.8125 17.5591 38.4409 16.1875 36.75 16.1875H36.3125V10.5C36.3125 7.84138 34.1586 5.6875 31.5 5.6875H25.8125V5.25C25.8125 3.55913 24.4409 2.1875 22.75 2.1875H19.25ZM8.3125 31.5C8.3125 32.7089 9.29112 33.6875 10.5 33.6875H16.1875V33.25C16.1875 31.5591 17.5591 30.1875 19.25 30.1875H22.75C24.4409 30.1875 25.8125 31.5591 25.8125 33.25V33.6875H31.5C32.7089 33.6875 33.6875 32.7089 33.6875 31.5V25.8125H33.25C31.5591 25.8125 30.1875 24.4409 30.1875 22.75V19.25C30.1875 17.5591 31.5591 16.1875 33.25 16.1875H33.6875V10.5C33.6875 9.29112 32.7089 8.3125 31.5 8.3125H25.8125V8.75C25.8125 10.4409 24.4409 11.8125 22.75 11.8125H19.25C17.5591 11.8125 16.1875 10.4409 16.1875 8.75V8.3125H10.5C9.29112 8.3125 8.3125 9.29112 8.3125 10.5V16.1875H8.75C10.4409 16.1875 11.8125 17.5591 11.8125 19.25V22.75C11.8125 24.4409 10.4409 25.8125 8.75 25.8125H8.3125V31.5ZM18.8125 33.25C18.8125 33.0089 19.0089 32.8125 19.25 32.8125H22.75C22.9911 32.8125 23.1875 33.0089 23.1875 33.25V36.75C23.1875 36.9911 22.9911 37.1875 22.75 37.1875H19.25C19.0089 37.1875 18.8125 36.9911 18.8125 36.75V33.25ZM5.25 18.8125C5.00887 18.8125 4.8125 19.0089 4.8125 19.25V22.75C4.8125 22.9911 5.00887 23.1875 5.25 23.1875H8.75C8.99113 23.1875 9.1875 22.9911 9.1875 22.75V19.25C9.1875 19.0089 8.99113 18.8125 8.75 18.8125H5.25ZM32.8125 19.25C32.8125 19.0089 33.0089 18.8125 33.25 18.8125H36.75C36.9911 18.8125 37.1875 19.0089 37.1875 19.25V22.75C37.1875 22.9911 36.9911 23.1875 36.75 23.1875H33.25C33.0089 23.1875 32.8125 22.9911 32.8125 22.75V19.25ZM22.6625 21C22.6625 21.832 21.9904 22.533 21.1313 22.533C20.2856 22.533 19.6 21.8474 19.6 21.0017C19.6 19.7569 20.6219 19.4777 21.1122 19.4706C21.9763 19.4581 22.6625 20.1581 22.6625 21Z" fill="#58595B"/>
</svg>
