<svg width="42" height="42" viewBox="0 0 42 42" fill="none" xmlns="http://www.w3.org/2000/svg">
<path fill-rule="evenodd" clip-rule="evenodd" d="M22.9685 19.0313C21.8812 17.944 20.1183 17.944 19.031 19.0313C17.9437 20.1186 17.9436 21.8815 19.031 22.9688C20.1183 24.0561 21.8812 24.0561 22.9685 22.9688C24.0558 21.8815 24.0558 20.1186 22.9685 19.0313ZM24.8246 17.1751C22.7122 15.0627 19.2873 15.0627 17.1748 17.1751C15.0624 19.2876 15.0624 22.7125 17.1748 24.825C19.2872 26.9374 22.7122 26.9374 24.8246 24.825C26.9371 22.7125 26.9371 19.2876 24.8246 17.1751Z" fill="#58595B"/>
<path fill-rule="evenodd" clip-rule="evenodd" d="M36.6073 19.3207C35.6799 18.3933 34.1763 18.3933 33.2489 19.3207C32.3215 20.2482 32.3215 21.7518 33.2489 22.6791C34.1763 23.6066 35.6799 23.6065 36.6073 22.6792C37.5347 21.7517 37.5347 20.2481 36.6073 19.3207ZM38.4634 17.4646C40.416 19.4171 40.416 22.5828 38.4634 24.5353C36.5109 26.4878 33.3453 26.4878 31.3927 24.5353C29.4402 22.5828 29.4402 19.4171 31.3927 17.4646C33.3452 15.5121 36.5109 15.5121 38.4634 17.4646Z" fill="#58595B"/>
<path fill-rule="evenodd" clip-rule="evenodd" d="M8.75073 19.3207C7.82333 18.3933 6.31972 18.3933 5.39232 19.3207C4.46492 20.2482 4.46493 21.7518 5.39232 22.6791C6.31973 23.6066 7.82334 23.6065 8.75073 22.6792C9.67813 21.7517 9.67813 20.2481 8.75073 19.3207ZM10.6069 17.4646C12.5594 19.4171 12.5594 22.5828 10.6069 24.5353C8.65436 26.4878 5.4887 26.4878 3.53617 24.5353C1.58365 22.5828 1.58365 19.4171 3.53617 17.4646C5.48869 15.5121 8.65435 15.5121 10.6069 17.4646Z" fill="#58595B"/>
<path fill-rule="evenodd" clip-rule="evenodd" d="M29.6423 7.25805C28.7149 6.33065 27.2113 6.33065 26.2839 7.25805C25.3565 8.18545 25.3565 9.68906 26.2839 10.6165C27.2113 11.5439 28.7149 11.5439 29.6423 10.6165C30.5697 9.68905 30.5697 8.18545 29.6423 7.25805ZM31.4984 5.40189C33.451 7.35442 33.451 10.5201 31.4984 12.4726C29.5459 14.4251 26.3803 14.4251 24.4277 12.4726C22.4752 10.5201 22.4752 7.35443 24.4277 5.40189C26.3802 3.44937 29.5459 3.44937 31.4984 5.40189Z" fill="#58595B"/>
<path fill-rule="evenodd" clip-rule="evenodd" d="M15.7157 31.3835C14.7883 30.4561 13.2847 30.4561 12.3573 31.3835C11.4299 32.3109 11.4299 33.8145 12.3573 34.7419C13.2847 35.6693 14.7883 35.6693 15.7157 34.7419C16.6431 33.8145 16.6431 32.3109 15.7157 31.3835ZM17.5719 29.5273C19.5244 31.4799 19.5244 34.6455 17.5719 36.5981C15.6194 38.5506 12.4537 38.5506 10.5012 36.5981C8.54865 34.6455 8.54865 31.4799 10.5012 29.5273C12.4537 27.5748 15.6194 27.5748 17.5719 29.5273Z" fill="#58595B"/>
<path fill-rule="evenodd" clip-rule="evenodd" d="M15.7157 7.25805C14.7883 6.33065 13.2847 6.33065 12.3573 7.25805C11.4299 8.18545 11.4299 9.68906 12.3573 10.6165C13.2847 11.5439 14.7883 11.5439 15.7157 10.6165C16.6431 9.68905 16.6431 8.18545 15.7157 7.25805ZM17.5719 5.40189C19.5244 7.35442 19.5244 10.5201 17.5719 12.4726C15.6194 14.4251 12.4537 14.4251 10.5012 12.4726C8.54865 10.5201 8.54865 7.35443 10.5012 5.40189C12.4537 3.44937 15.6194 3.44937 17.5719 5.40189Z" fill="#58595B"/>
<path fill-rule="evenodd" clip-rule="evenodd" d="M29.6423 31.3835C28.7149 30.4561 27.2113 30.4561 26.2839 31.3835C25.3565 32.3109 25.3565 33.8145 26.2839 34.7419C27.2113 35.6693 28.7149 35.6693 29.6423 34.7419C30.5697 33.8145 30.5697 32.3109 29.6423 31.3835ZM31.4984 29.5273C33.451 31.4799 33.451 34.6455 31.4984 36.5981C29.5459 38.5506 26.3803 38.5506 24.4277 36.5981C22.4752 34.6455 22.4752 31.4799 24.4277 29.5273C26.3802 27.5748 29.5459 27.5748 31.4984 29.5273Z" fill="#58595B"/>
<path fill-rule="evenodd" clip-rule="evenodd" d="M19.6083 23.3982C20.2361 23.7605 20.4514 24.5631 20.0891 25.191L17.0091 30.5285C16.6468 31.1563 15.8441 31.3716 15.2163 31.0093C14.5885 30.647 14.3732 29.8443 14.7355 29.2165L17.8155 23.879C18.1778 23.2512 18.9804 23.0359 19.6083 23.3982Z" fill="#58595B"/>
<path fill-rule="evenodd" clip-rule="evenodd" d="M15.2163 10.9907C15.8441 10.6284 16.6468 10.8437 17.0091 11.4715L20.0891 16.809C20.4514 17.4368 20.2361 18.2395 19.6083 18.6018C18.9804 18.9641 18.1778 18.7488 17.8155 18.121L14.7355 12.7835C14.3732 12.1556 14.5885 11.353 15.2163 10.9907Z" fill="#58595B"/>
<path fill-rule="evenodd" clip-rule="evenodd" d="M23.7823 21C23.7823 20.2751 24.3699 19.6875 25.0948 19.6875H31.2373C31.9622 19.6875 32.5498 20.2751 32.5498 21C32.5498 21.7249 31.9622 22.3125 31.2373 22.3125H25.0948C24.3699 22.3125 23.7823 21.7249 23.7823 21Z" fill="#58595B"/>
</svg>
